<?xml version="1.0" encoding="iso-8859-1"?>
<!-- Generator: Adobe Illustrator 18.1.1, SVG Export Plug-In . SVG Version: 6.00 Build 0)  -->
<svg version="1.1" id="Capa_1" xmlns="http://www.w3.org/2000/svg" xmlns:xlink="http://www.w3.org/1999/xlink" x="0px" y="0px"
	 viewBox="0 0 25.967 25.967" style="enable-background:new 0 0 25.967 25.967;" xml:space="preserve">
<g>
	<g id="c23_download">
		<path style="fill:#030104;" d="M22.074,7.644h-3.913v1.824h3.913c1.07,0,1.943,0.592,1.943,1.316v11.924
			c0,0.726-0.873,1.314-1.943,1.314H3.896c-1.074,0-1.947-0.589-1.947-1.314V10.784c0-0.725,0.873-1.316,1.947-1.316h3.908V7.644
			H3.896C1.742,7.644,0,8.821,0,10.274v12.938c0,1.453,1.742,2.629,3.896,2.629h18.178c2.15,0,3.893-1.176,3.893-2.629V10.274
			C25.967,8.821,24.225,7.644,22.074,7.644z"/>
		<polygon style="fill:#030104;" points="9.166,13.493 5.445,13.493 13.077,22.554 20.522,13.267 16.799,13.267 16.799,7.03 
			16.799,5.284 16.799,0.126 9.166,0.126 9.166,5.284 9.166,7.03 		"/>
	</g>
</g>
<g>
</g>
<g>
</g>
<g>
</g>
<g>
</g>
<g>
</g>
<g>
</g>
<g>
</g>
<g>
</g>
<g>
</g>
<g>
</g>
<g>
</g>
<g>
</g>
<g>
</g>
<g>
</g>
<g>
</g>
</svg>
