<svg width="50" height="50" viewBox="0 0 50 50" fill="none" xmlns="http://www.w3.org/2000/svg">
<circle cx="25" cy="25" r="25" fill="#ED4B57"/>
<path d="M28.4375 14H20.5625C16.9387 14 14 16.9387 14 20.5625V28.4375C14 32.0613 16.9387 35 20.5625 35H28.4375C32.0613 35 35 32.0613 35 28.4375V20.5625C35 16.9387 32.0613 14 28.4375 14ZM33.0312 28.4375C33.0312 30.9706 30.9706 33.0312 28.4375 33.0312H20.5625C18.0294 33.0312 15.9688 30.9706 15.9688 28.4375V20.5625C15.9688 18.0294 18.0294 15.9688 20.5625 15.9688H28.4375C30.9706 15.9688 33.0312 18.0294 33.0312 20.5625V28.4375Z" fill="white"/>
<path d="M24.5 19.25C21.6007 19.25 19.25 21.6007 19.25 24.5C19.25 27.3993 21.6007 29.75 24.5 29.75C27.3993 29.75 29.75 27.3993 29.75 24.5C29.75 21.6007 27.3993 19.25 24.5 19.25ZM24.5 27.7812C22.6914 27.7812 21.2188 26.3086 21.2188 24.5C21.2188 22.6901 22.6914 21.2188 24.5 21.2188C26.3086 21.2188 27.7812 22.6901 27.7812 24.5C27.7812 26.3086 26.3086 27.7812 24.5 27.7812Z" fill="white"/>
<path d="M30.1437 19.5559C30.5301 19.5559 30.8433 19.2427 30.8433 18.8563C30.8433 18.4699 30.5301 18.1567 30.1437 18.1567C29.7574 18.1567 29.4442 18.4699 29.4442 18.8563C29.4442 19.2427 29.7574 19.5559 30.1437 19.5559Z" fill="white"/>
</svg>
