<svg width="24" height="18" viewBox="0 0 24 18" fill="none" xmlns="http://www.w3.org/2000/svg">
<rect width="24" height="18" rx="3" fill="#F13A66"/>
<path d="M20.56 2.48996L12.63 9.62008C12.22 9.99008 11.56 9.99008 11.15 9.62008L3.22 2.48996C3.01 2.30996 2.70001 2.32 2.51001 2.53C2.33001 2.74 2.33999 3.04996 2.54999 3.23996L10.48 10.3701C10.87 10.7201 11.38 10.8999 11.89 10.8999C12.4 10.8999 12.9 10.7201 13.3 10.3701L21.23 3.23996C21.44 3.05996 21.45 2.74 21.27 2.53C21.08 2.32 20.76 2.29996 20.56 2.48996Z" fill="#F2F5FA"/>
<path d="M15.9 10.3401C15.69 10.1601 15.37 10.1899 15.2 10.4099C15.02 10.6199 15.05 10.9401 15.26 11.1101L20.57 15.53C20.66 15.61 20.78 15.6499 20.89 15.6499C21.03 15.6499 21.18 15.5899 21.27 15.4699C21.45 15.2599 21.42 14.94 21.21 14.77L15.9 10.3401Z" fill="#F2F5FA"/>
<path d="M7.88 10.3402L2.57001 14.7601C2.36001 14.9401 2.33001 15.2501 2.51001 15.4601C2.61001 15.5801 2.75001 15.64 2.89001 15.64C3.00001 15.64 3.11999 15.6001 3.20999 15.5201L8.51999 11.1002C8.72999 10.9202 8.75998 10.61 8.57998 10.4C8.40998 10.19 8.09 10.1602 7.88 10.3402Z" fill="#F2F5FA"/>
<path d="M21.15 0H2.84C1.25 0 0 1.23004 0 2.79004V15.21C0 16.77 1.25 18 2.84 18H21.15C22.72 18 24 16.75 24 15.21V2.79004C24 1.25004 22.72 0 21.15 0ZM23 15.21C23 16.21 22.19 17 21.15 17H2.84C1.81 17 1 16.21 1 15.21V2.79004C1 1.79004 1.81 1 2.84 1H21.15C22.19 1 23 1.79004 23 2.79004V15.21Z" fill="#F13A66"/>
</svg>
