<svg width="21" height="7" viewBox="0 0 21 7" fill="none" xmlns="http://www.w3.org/2000/svg">
<path d="M0.509965 3.73996C0.789965 3.73996 18.3 3.73996 18.3 3.73996L16.42 5.61996C16.22 5.81996 16.22 6.12992 16.42 6.32992C16.52 6.42992 16.65 6.47995 16.77 6.47995C16.89 6.47995 17.03 6.42992 17.12 6.32992L19.86 3.58993C19.91 3.53993 19.94 3.4899 19.97 3.4299C20 3.3699 20.01 3.29996 20.01 3.23996C20.01 3.16996 20 3.11002 19.97 3.05002C19.94 2.99002 19.91 2.92998 19.86 2.88998L17.12 0.149993C16.92 -0.0500074 16.61 -0.0500074 16.41 0.149993C16.21 0.349993 16.21 0.659954 16.41 0.859954L18.29 2.73996H0.499985C0.219985 2.73996 -1.45528e-05 3.23996 -1.45528e-05 3.23996C-1.45528e-05 3.23996 0.229965 3.73996 0.509965 3.73996Z" fill="white"/>
</svg>
