<svg width="24" height="24" viewBox="0 0 24 24" fill="none" xmlns="http://www.w3.org/2000/svg">
<path d="M15.541 14.105C15.181 13.745 14.561 13.715 14.171 14.085C14.171 14.085 12.811 15.4149 12.691 15.4849C11.891 15.4849 9.87099 13.7949 8.61099 12.0649C7.85099 11.0349 7.77099 10.5248 7.77099 10.4648L9.23099 9.03491C9.42099 8.85491 9.52099 8.60497 9.52099 8.34497C9.52099 8.08497 9.42099 7.83503 9.24099 7.65503L4.45099 2.7749C4.27099 2.5849 4.02099 2.48486 3.75099 2.48486C3.49099 2.48486 3.25099 2.58489 3.06099 2.76489C2.90099 2.91489 2.74099 3.07486 2.57099 3.23486C1.39099 4.35486 0.0409914 5.62484 0.000991439 7.71484C-0.0490086 10.2148 1.79099 13.285 5.79099 17.355C9.81099 21.465 12.861 23.375 15.361 23.375C17.551 23.375 18.911 21.905 20.111 20.605L20.361 20.335C20.721 19.955 20.711 19.3549 20.341 18.9749L15.541 14.105Z" fill="#F13A66"/>
<path d="M18.841 10.8751C18.831 11.1551 19.051 11.3851 19.321 11.3951C19.331 11.3951 19.331 11.3951 19.341 11.3951C19.611 11.3951 19.831 11.1852 19.841 10.9152C19.911 8.87516 19.151 6.96502 17.721 5.52502C16.291 4.08502 14.381 3.32515 12.331 3.40515C12.051 3.41515 11.841 3.64492 11.851 3.92492C11.861 4.20492 12.091 4.40515 12.371 4.40515C14.121 4.32515 15.781 4.99498 17.021 6.23498C18.251 7.46498 18.901 9.11512 18.841 10.8751Z" fill="#F13A66"/>
<path d="M20.111 3.1151C18.041 1.0451 15.281 -0.0850068 12.331 0.00499322C12.051 0.0149932 11.831 0.235003 11.841 0.515003C11.851 0.795003 12.111 1.00499 12.351 1.00499C15.011 0.924993 17.521 1.94506 19.401 3.82506C21.281 5.70506 22.281 8.20511 22.221 10.8751C22.211 11.1551 22.431 11.3751 22.711 11.3851H22.721C22.991 11.3851 23.211 11.1651 23.221 10.8951C23.291 7.95513 22.191 5.1951 20.111 3.1151Z" fill="#F13A66"/>
<path d="M11.851 7.31482C11.871 7.58482 12.101 7.81479 12.381 7.78479C13.221 7.74479 14.031 8.03488 14.611 8.62488C15.201 9.21488 15.501 10.0249 15.451 10.8549C15.431 11.1349 15.641 11.3649 15.921 11.3849C15.931 11.3849 15.941 11.3849 15.951 11.3849C16.211 11.3849 16.431 11.1849 16.451 10.9149C16.521 9.79492 16.111 8.69491 15.321 7.90491C14.531 7.11491 13.441 6.70478 12.311 6.77478C12.041 6.80478 11.831 7.04482 11.851 7.31482Z" fill="#F13A66"/>
</svg>
